<svg viewBox="0 0 95 59" xmlns="http://www.w3.org/2000/svg"><path d="M79.28 7.05c1.4-.3 2.6 1 2.1 2.3-2.4 7.3-6.6 19-11.1 28.4-3.7 7.6-10.4 12.1-15.7 14.7 3.9-6 8.5-15.4 8.5-26.2 0-4.5-.8-8.8-2.1-12.7 6.1-3.3 13.2-5.3 18.3-6.5" fill="#ffffff"/><path d="M45.98.75c.7-1 2.2-1 3 0 3.7 5.2 9.1 14.8 9.1 25.5 0 12.3-7.2 23-10.6 27.5-3.5-4.5-10.6-15.2-10.6-27.5 0-10.7 5.4-20.3 9.1-25.5" fill="#ffffff"/><path d="M33.88 13.55a43 43 0 0 0-2.1 12.7c0 10.8 4.6 20.2 8.5 26.2-5.3-2.5-12.1-7-15.7-14.7-4.5-9.4-8.7-21.1-11.1-28.4-.4-1.3.7-2.6 2.1-2.3 5.2 1.2 12.3 3.2 18.3 6.5" fill="#ffffff"/><path d="M22.48 54.45c-7.4-5.7-16.8-17.4-22.1-24.3-.8-1.1-.3-2.6 1.1-2.9 3.7-.7 8.2-1.2 12.7-1.4 1.8 4.7 3.9 9.6 6 14 4.6 9.6 13.1 15 19.4 17.7-5 1-11.7 1.1-17.1-3.1m50 0c-5.4 4.2-12.1 4.1-17 3.1 6.2-2.7 14.7-8.1 19.4-17.7 2.1-4.4 4.2-9.3 6-14 4.5.2 9 .7 12.7 1.4 1.3.2 1.9 1.8 1.1 2.9-5.4 6.9-14.8 18.6-22.2 24.3" fill="#ffffff"/></svg>
